# xmcd CD database file
#
# Track frame offsets:
#	150
#	16167
#	28632
#	37352
#	47147
#	60677
#	81870
#	94875
#	108880
#	127435
#	140047
#	154212
#	166615
#	181565
#	196862
#	210422
#
# Disc length: 2986 seconds
#
# Revision: 0
# Processed by: cddbd v1.5.2PL0 Copyright (c) Steve Scherf et al.
# Submitted via: CDex 1.70beta2
#
DISCID=d80ba810
DTITLE=Louis Armstrong - Satchmos' Hits
DYEAR=1989
DGENRE=Blues
TTITLE0=Up the lazy river
TTITLE1=When the saints go marchin' in
TTITLE2=Struttin' with some barbecue
TTITLE3=Dippermouth blues
TTITLE4=St. Louis blues
TTITLE5=Tiger rag
TTITLE6=Swing that music
TTITLE7=Some day you'll be sorry
TTITLE8=Panama
TTITLE9=Gut bucket blues
TTITLE10=Cornet shop suey
TTITLE11=Yes! I'm in the barrel
TTITLE12=Wild man blues
TTITLE13=Gully low blues
TTITLE14=S.O.L. blues
TTITLE15=Potato head blues
EXTD=YEAR: 1989
EXTT0=
EXTT1=
EXTT2=
EXTT3=
EXTT4=
EXTT5=
EXTT6=
EXTT7=
EXTT8=
EXTT9=
EXTT10=
EXTT11=
EXTT12=
EXTT13=
EXTT14=
EXTT15=
PLAYORDER=
